<mxfile host="Electron" modified="2023-07-16T23:03:07.941Z" agent="Mozilla/5.0 (X11; Linux x86_64) AppleWebKit/537.36 (KHTML, like Gecko) draw.io/21.6.1 Chrome/112.0.5615.204 Electron/24.6.1 Safari/537.36" etag="Si7Y_Cqn4At9tM47BXTF" version="21.6.1" type="device">
  <diagram name="第 1 页" id="q7HSDtDoBeR8DjNvWGaf">
    <mxGraphModel dx="1114" dy="786" grid="1" gridSize="10" guides="1" tooltips="1" connect="1" arrows="1" fold="1" page="1" pageScale="1" pageWidth="827" pageHeight="1169" math="0" shadow="0">
      <root>
        <mxCell id="0" />
        <mxCell id="1" parent="0" />
        <mxCell id="k2VJLeDsCPEsgnFZbSrU-61" style="edgeStyle=orthogonalEdgeStyle;rounded=0;orthogonalLoop=1;jettySize=auto;html=1;exitX=0.5;exitY=1;exitDx=0;exitDy=0;entryX=0.5;entryY=0;entryDx=0;entryDy=0;" edge="1" parent="1" source="k2VJLeDsCPEsgnFZbSrU-1" target="k2VJLeDsCPEsgnFZbSrU-37">
          <mxGeometry relative="1" as="geometry" />
        </mxCell>
        <mxCell id="k2VJLeDsCPEsgnFZbSrU-1" value="AB" style="rounded=0;whiteSpace=wrap;html=1;" vertex="1" parent="1">
          <mxGeometry x="100" y="360" width="40" height="40" as="geometry" />
        </mxCell>
        <mxCell id="k2VJLeDsCPEsgnFZbSrU-60" style="edgeStyle=orthogonalEdgeStyle;rounded=0;orthogonalLoop=1;jettySize=auto;html=1;exitX=0.5;exitY=1;exitDx=0;exitDy=0;entryX=0.5;entryY=0;entryDx=0;entryDy=0;" edge="1" parent="1" source="k2VJLeDsCPEsgnFZbSrU-2" target="k2VJLeDsCPEsgnFZbSrU-39">
          <mxGeometry relative="1" as="geometry" />
        </mxCell>
        <mxCell id="k2VJLeDsCPEsgnFZbSrU-2" value="11" style="rounded=0;whiteSpace=wrap;html=1;" vertex="1" parent="1">
          <mxGeometry x="140" y="360" width="40" height="40" as="geometry" />
        </mxCell>
        <mxCell id="k2VJLeDsCPEsgnFZbSrU-59" style="edgeStyle=orthogonalEdgeStyle;rounded=0;orthogonalLoop=1;jettySize=auto;html=1;exitX=0.5;exitY=1;exitDx=0;exitDy=0;" edge="1" parent="1" source="k2VJLeDsCPEsgnFZbSrU-3" target="k2VJLeDsCPEsgnFZbSrU-40">
          <mxGeometry relative="1" as="geometry" />
        </mxCell>
        <mxCell id="k2VJLeDsCPEsgnFZbSrU-3" value="12" style="rounded=0;whiteSpace=wrap;html=1;" vertex="1" parent="1">
          <mxGeometry x="180" y="360" width="40" height="40" as="geometry" />
        </mxCell>
        <mxCell id="k2VJLeDsCPEsgnFZbSrU-58" style="edgeStyle=orthogonalEdgeStyle;rounded=0;orthogonalLoop=1;jettySize=auto;html=1;exitX=0.5;exitY=1;exitDx=0;exitDy=0;entryX=0.5;entryY=0;entryDx=0;entryDy=0;" edge="1" parent="1" source="k2VJLeDsCPEsgnFZbSrU-4" target="k2VJLeDsCPEsgnFZbSrU-41">
          <mxGeometry relative="1" as="geometry" />
        </mxCell>
        <mxCell id="k2VJLeDsCPEsgnFZbSrU-4" value="CD" style="rounded=0;whiteSpace=wrap;html=1;" vertex="1" parent="1">
          <mxGeometry x="220" y="360" width="40" height="40" as="geometry" />
        </mxCell>
        <mxCell id="k2VJLeDsCPEsgnFZbSrU-56" style="edgeStyle=orthogonalEdgeStyle;rounded=0;orthogonalLoop=1;jettySize=auto;html=1;exitX=0.5;exitY=1;exitDx=0;exitDy=0;" edge="1" parent="1" source="k2VJLeDsCPEsgnFZbSrU-5" target="k2VJLeDsCPEsgnFZbSrU-42">
          <mxGeometry relative="1" as="geometry" />
        </mxCell>
        <mxCell id="k2VJLeDsCPEsgnFZbSrU-5" value="AA" style="rounded=0;whiteSpace=wrap;html=1;fillColor=#FF6666;" vertex="1" parent="1">
          <mxGeometry x="260" y="360" width="40" height="40" as="geometry" />
        </mxCell>
        <mxCell id="k2VJLeDsCPEsgnFZbSrU-57" style="edgeStyle=orthogonalEdgeStyle;rounded=0;orthogonalLoop=1;jettySize=auto;html=1;exitX=0.5;exitY=1;exitDx=0;exitDy=0;entryX=0.5;entryY=0;entryDx=0;entryDy=0;" edge="1" parent="1" source="k2VJLeDsCPEsgnFZbSrU-6" target="k2VJLeDsCPEsgnFZbSrU-43">
          <mxGeometry relative="1" as="geometry" />
        </mxCell>
        <mxCell id="k2VJLeDsCPEsgnFZbSrU-6" value="AA" style="rounded=0;whiteSpace=wrap;html=1;fillColor=#66FF66;" vertex="1" parent="1">
          <mxGeometry x="300" y="360" width="40" height="40" as="geometry" />
        </mxCell>
        <mxCell id="k2VJLeDsCPEsgnFZbSrU-7" value="EMPTY" style="rounded=0;whiteSpace=wrap;html=1;fontSize=10;fillColor=#999999;" vertex="1" parent="1">
          <mxGeometry x="380" y="360" width="40" height="40" as="geometry" />
        </mxCell>
        <mxCell id="k2VJLeDsCPEsgnFZbSrU-8" value="DELETED" style="rounded=0;whiteSpace=wrap;html=1;fontSize=8;fillColor=#E6E6E6;" vertex="1" parent="1">
          <mxGeometry x="340" y="360" width="40" height="40" as="geometry" />
        </mxCell>
        <mxCell id="k2VJLeDsCPEsgnFZbSrU-22" style="edgeStyle=orthogonalEdgeStyle;rounded=0;orthogonalLoop=1;jettySize=auto;html=1;exitX=0.5;exitY=1;exitDx=0;exitDy=0;entryX=0.5;entryY=0;entryDx=0;entryDy=0;" edge="1" parent="1" target="k2VJLeDsCPEsgnFZbSrU-21">
          <mxGeometry relative="1" as="geometry">
            <mxPoint x="490" y="60" as="sourcePoint" />
          </mxGeometry>
        </mxCell>
        <mxCell id="k2VJLeDsCPEsgnFZbSrU-17" value="&lt;font style=&quot;font-size: 30px;&quot;&gt;Key1&lt;/font&gt;" style="text;strokeColor=none;fillColor=none;html=1;fontSize=24;fontStyle=1;verticalAlign=middle;align=center;" vertex="1" parent="1">
          <mxGeometry x="440" y="20" width="100" height="40" as="geometry" />
        </mxCell>
        <mxCell id="k2VJLeDsCPEsgnFZbSrU-26" style="edgeStyle=orthogonalEdgeStyle;rounded=0;orthogonalLoop=1;jettySize=auto;html=1;exitX=0;exitY=0.5;exitDx=0;exitDy=0;entryX=0;entryY=0.5;entryDx=0;entryDy=0;" edge="1" parent="1" source="k2VJLeDsCPEsgnFZbSrU-18" target="k2VJLeDsCPEsgnFZbSrU-1">
          <mxGeometry relative="1" as="geometry" />
        </mxCell>
        <mxCell id="k2VJLeDsCPEsgnFZbSrU-18" value="H1" style="rounded=0;whiteSpace=wrap;html=1;fillColor=#97D077;" vertex="1" parent="1">
          <mxGeometry x="100" y="210" width="360" height="30" as="geometry" />
        </mxCell>
        <mxCell id="k2VJLeDsCPEsgnFZbSrU-27" style="edgeStyle=orthogonalEdgeStyle;rounded=0;orthogonalLoop=1;jettySize=auto;html=1;exitX=0.5;exitY=1;exitDx=0;exitDy=0;entryX=0.5;entryY=0;entryDx=0;entryDy=0;" edge="1" parent="1" source="k2VJLeDsCPEsgnFZbSrU-19" target="k2VJLeDsCPEsgnFZbSrU-6">
          <mxGeometry relative="1" as="geometry" />
        </mxCell>
        <mxCell id="k2VJLeDsCPEsgnFZbSrU-19" value="H2" style="rounded=0;whiteSpace=wrap;html=1;fillColor=#00FAE9;" vertex="1" parent="1">
          <mxGeometry x="580" y="210" width="60" height="30" as="geometry" />
        </mxCell>
        <mxCell id="k2VJLeDsCPEsgnFZbSrU-23" style="edgeStyle=orthogonalEdgeStyle;rounded=0;orthogonalLoop=1;jettySize=auto;html=1;exitX=0;exitY=0.5;exitDx=0;exitDy=0;" edge="1" parent="1" source="k2VJLeDsCPEsgnFZbSrU-21" target="k2VJLeDsCPEsgnFZbSrU-18">
          <mxGeometry relative="1" as="geometry" />
        </mxCell>
        <mxCell id="k2VJLeDsCPEsgnFZbSrU-25" style="edgeStyle=orthogonalEdgeStyle;rounded=0;orthogonalLoop=1;jettySize=auto;html=1;exitX=1;exitY=0.5;exitDx=0;exitDy=0;entryX=0.5;entryY=0;entryDx=0;entryDy=0;" edge="1" parent="1" source="k2VJLeDsCPEsgnFZbSrU-21" target="k2VJLeDsCPEsgnFZbSrU-19">
          <mxGeometry relative="1" as="geometry" />
        </mxCell>
        <mxCell id="k2VJLeDsCPEsgnFZbSrU-21" value="hash函数" style="rounded=1;whiteSpace=wrap;html=1;" vertex="1" parent="1">
          <mxGeometry x="430" y="100" width="120" height="60" as="geometry" />
        </mxCell>
        <mxCell id="k2VJLeDsCPEsgnFZbSrU-28" value="根据H1找到对应的偏移量，从这个位置开始按group搜索" style="text;html=1;strokeColor=none;fillColor=none;align=center;verticalAlign=middle;whiteSpace=wrap;rounded=0;fontSize=14;" vertex="1" parent="1">
          <mxGeometry x="20" y="280" width="60" height="30" as="geometry" />
        </mxCell>
        <mxCell id="k2VJLeDsCPEsgnFZbSrU-29" value="EMPTY" style="rounded=0;whiteSpace=wrap;html=1;fontSize=10;fillColor=#999999;" vertex="1" parent="1">
          <mxGeometry x="460" y="360" width="40" height="40" as="geometry" />
        </mxCell>
        <mxCell id="k2VJLeDsCPEsgnFZbSrU-30" value="EMPTY" style="rounded=0;whiteSpace=wrap;html=1;fontSize=10;fillColor=#999999;" vertex="1" parent="1">
          <mxGeometry x="420" y="360" width="40" height="40" as="geometry" />
        </mxCell>
        <mxCell id="k2VJLeDsCPEsgnFZbSrU-31" value="EMPTY" style="rounded=0;whiteSpace=wrap;html=1;fontSize=10;fillColor=#999999;" vertex="1" parent="1">
          <mxGeometry x="500" y="360" width="40" height="40" as="geometry" />
        </mxCell>
        <mxCell id="k2VJLeDsCPEsgnFZbSrU-32" value="EMPTY" style="rounded=0;whiteSpace=wrap;html=1;fontSize=10;fillColor=#999999;" vertex="1" parent="1">
          <mxGeometry x="540" y="360" width="40" height="40" as="geometry" />
        </mxCell>
        <mxCell id="k2VJLeDsCPEsgnFZbSrU-33" value="EMPTY" style="rounded=0;whiteSpace=wrap;html=1;fontSize=10;fillColor=#999999;" vertex="1" parent="1">
          <mxGeometry x="580" y="360" width="40" height="40" as="geometry" />
        </mxCell>
        <mxCell id="k2VJLeDsCPEsgnFZbSrU-34" value="EMPTY" style="rounded=0;whiteSpace=wrap;html=1;fontSize=10;fillColor=#999999;" vertex="1" parent="1">
          <mxGeometry x="620" y="360" width="40" height="40" as="geometry" />
        </mxCell>
        <mxCell id="k2VJLeDsCPEsgnFZbSrU-35" value="EMPTY" style="rounded=0;whiteSpace=wrap;html=1;fontSize=10;fillColor=#999999;" vertex="1" parent="1">
          <mxGeometry x="660" y="360" width="40" height="40" as="geometry" />
        </mxCell>
        <mxCell id="k2VJLeDsCPEsgnFZbSrU-36" value="EMPTY" style="rounded=0;whiteSpace=wrap;html=1;fontSize=10;fillColor=#999999;" vertex="1" parent="1">
          <mxGeometry x="700" y="360" width="40" height="40" as="geometry" />
        </mxCell>
        <mxCell id="k2VJLeDsCPEsgnFZbSrU-37" value="..." style="rounded=0;whiteSpace=wrap;html=1;" vertex="1" parent="1">
          <mxGeometry x="100" y="520" width="40" height="40" as="geometry" />
        </mxCell>
        <mxCell id="k2VJLeDsCPEsgnFZbSrU-39" value="..." style="rounded=0;whiteSpace=wrap;html=1;" vertex="1" parent="1">
          <mxGeometry x="140" y="520" width="40" height="40" as="geometry" />
        </mxCell>
        <mxCell id="k2VJLeDsCPEsgnFZbSrU-40" value="..." style="rounded=0;whiteSpace=wrap;html=1;" vertex="1" parent="1">
          <mxGeometry x="180" y="520" width="40" height="40" as="geometry" />
        </mxCell>
        <mxCell id="k2VJLeDsCPEsgnFZbSrU-41" value="Key2" style="rounded=0;whiteSpace=wrap;html=1;" vertex="1" parent="1">
          <mxGeometry x="220" y="520" width="40" height="40" as="geometry" />
        </mxCell>
        <mxCell id="k2VJLeDsCPEsgnFZbSrU-42" value="Key0" style="rounded=0;whiteSpace=wrap;html=1;fillColor=#FF6666;" vertex="1" parent="1">
          <mxGeometry x="260" y="520" width="40" height="40" as="geometry" />
        </mxCell>
        <mxCell id="k2VJLeDsCPEsgnFZbSrU-43" value="Key1" style="rounded=0;whiteSpace=wrap;html=1;fillColor=#66FF66;" vertex="1" parent="1">
          <mxGeometry x="300" y="520" width="40" height="40" as="geometry" />
        </mxCell>
        <mxCell id="k2VJLeDsCPEsgnFZbSrU-54" value="DELETED" style="rounded=0;whiteSpace=wrap;html=1;fontSize=8;fillColor=#E6E6E6;" vertex="1" parent="1">
          <mxGeometry x="340" y="520" width="40" height="40" as="geometry" />
        </mxCell>
        <mxCell id="k2VJLeDsCPEsgnFZbSrU-55" value="slots：" style="text;html=1;strokeColor=none;fillColor=none;align=center;verticalAlign=middle;whiteSpace=wrap;rounded=0;" vertex="1" parent="1">
          <mxGeometry x="30" y="530" width="60" height="30" as="geometry" />
        </mxCell>
        <mxCell id="k2VJLeDsCPEsgnFZbSrU-62" value="空的还未存过元素或者删除后符合条件被标记为空" style="rounded=0;whiteSpace=wrap;html=1;fillColor=#999999;" vertex="1" parent="1">
          <mxGeometry x="380" y="520" width="360" height="40" as="geometry" />
        </mxCell>
      </root>
    </mxGraphModel>
  </diagram>
</mxfile>
